<?xml version="1.0" standalone="no"?><!DOCTYPE svg PUBLIC "-//W3C//DTD SVG 1.1//EN" "http://www.w3.org/Graphics/SVG/1.1/DTD/svg11.dtd"><svg t="1503539148172" class="icon" style="" viewBox="0 0 1024 1024" version="1.1" xmlns="http://www.w3.org/2000/svg" p-id="2837" xmlns:xlink="http://www.w3.org/1999/xlink" width="200" height="200"><defs><style type="text/css"></style></defs><path d="M176 960h672l87.168-391.936H88.832L176 960zM736 707.968c0-15.488 12.544-28.032 28.032-28.032 15.488 0 28.032 12.544 28.032 28.032v167.936c0 15.488-12.544 28.032-28.032 28.032-15.488 0-28.032-12.544-28.032-28.032V707.968z m-168.064 0c0-15.488 12.544-28.032 28.032-28.032 15.488 0 28.032 12.544 28.032 28.032v167.936c0 15.488-12.544 28.032-28.032 28.032-15.488 0-28.032-12.544-28.032-28.032V707.968z m-167.936 0c0-15.488 12.544-28.032 28.032-28.032 15.488 0 28.032 12.544 28.032 28.032v167.936c0 15.488-12.544 28.032-28.032 28.032-15.488 0-28.032-12.544-28.032-28.032V707.968z m-167.936 0c0-15.488 12.544-28.032 28.032-28.032 15.488 0 28.032 12.544 28.032 28.032v167.936c0 15.488-12.544 28.032-28.032 28.032-15.488 0-28.032-12.544-28.032-28.032V707.968z m653.824-252.032l1.536-1.792-298.24-273.408c4.224-10.112 6.656-21.12 6.656-32.896 0-46.336-37.632-83.968-83.968-83.968-46.464 0-83.968 37.632-83.968 83.968 0 11.776 2.432 22.784 6.656 32.896l-298.24 273.408 1.536 1.792H64l12.416 55.936h871.04l12.416-55.936h-73.984z m-668.416 0l255.36-234.112c11.776 6.272 24.96 10.112 39.168 10.112 14.208 0 27.392-3.84 39.168-10.112l255.36 234.112H217.472z" p-id="2838" fill="#ef9e0d"></path></svg>